<mxfile host="app.diagrams.net" agent="Mozilla/5.0 (Windows NT 10.0; Win64; x64) AppleWebKit/537.36 (KHTML, like Gecko) Chrome/135.0.0.0 Safari/537.36" version="26.2.14">
  <diagram name="Page-1" id="YlXlVCNBx7IJNUF75GXG">
    <mxGraphModel dx="2277" dy="1999" grid="1" gridSize="10" guides="1" tooltips="1" connect="1" arrows="1" fold="1" page="1" pageScale="1" pageWidth="850" pageHeight="1100" math="0" shadow="0">
      <root>
        <mxCell id="0" />
        <mxCell id="1" parent="0" />
        <mxCell id="prv6S9n90Um1sJ-O_oQ2-3" value="WebMvcConfig" style="rounded=0;whiteSpace=wrap;html=1;fontSize=14;fontStyle=1" parent="1" vertex="1">
          <mxGeometry x="330" y="-10" width="120" height="40" as="geometry" />
        </mxCell>
        <mxCell id="prv6S9n90Um1sJ-O_oQ2-4" value="AppHomepage" style="rounded=0;whiteSpace=wrap;html=1;fontSize=14;fontStyle=1" parent="1" vertex="1">
          <mxGeometry x="140" y="-10" width="120" height="40" as="geometry" />
        </mxCell>
        <mxCell id="prv6S9n90Um1sJ-O_oQ2-7" value="" style="endArrow=none;dashed=1;html=1;rounded=0;" parent="1" source="prv6S9n90Um1sJ-O_oQ2-12" target="prv6S9n90Um1sJ-O_oQ2-4" edge="1">
          <mxGeometry width="50" height="50" relative="1" as="geometry">
            <mxPoint x="199.5" y="836" as="sourcePoint" />
            <mxPoint x="199.5" y="30" as="targetPoint" />
          </mxGeometry>
        </mxCell>
        <mxCell id="prv6S9n90Um1sJ-O_oQ2-8" value="" style="endArrow=none;dashed=1;html=1;rounded=0;" parent="1" source="prv6S9n90Um1sJ-O_oQ2-58" target="prv6S9n90Um1sJ-O_oQ2-3" edge="1">
          <mxGeometry width="50" height="50" relative="1" as="geometry">
            <mxPoint x="390" y="836" as="sourcePoint" />
            <mxPoint x="400" y="30" as="targetPoint" />
          </mxGeometry>
        </mxCell>
        <mxCell id="prv6S9n90Um1sJ-O_oQ2-9" value="" style="endArrow=classic;html=1;rounded=0;" parent="1" edge="1">
          <mxGeometry width="50" height="50" relative="1" as="geometry">
            <mxPoint x="205" y="80" as="sourcePoint" />
            <mxPoint x="385" y="80" as="targetPoint" />
          </mxGeometry>
        </mxCell>
        <mxCell id="prv6S9n90Um1sJ-O_oQ2-11" value="&lt;i&gt;&lt;font style=&quot;font-size: 13px;&quot;&gt;AddViewController()&lt;/font&gt;&lt;/i&gt;" style="text;html=1;align=center;verticalAlign=middle;resizable=0;points=[];autosize=1;strokeColor=none;fillColor=none;" parent="1" vertex="1">
          <mxGeometry x="225" y="50" width="140" height="30" as="geometry" />
        </mxCell>
        <mxCell id="prv6S9n90Um1sJ-O_oQ2-13" value="" style="endArrow=none;dashed=1;html=1;rounded=0;" parent="1" target="prv6S9n90Um1sJ-O_oQ2-12" edge="1">
          <mxGeometry width="50" height="50" relative="1" as="geometry">
            <mxPoint x="195" y="990" as="sourcePoint" />
            <mxPoint x="200" y="30" as="targetPoint" />
          </mxGeometry>
        </mxCell>
        <mxCell id="prv6S9n90Um1sJ-O_oQ2-12" value="" style="html=1;points=[[0,0,0,0,5],[0,1,0,0,-5],[1,0,0,0,5],[1,1,0,0,-5]];perimeter=orthogonalPerimeter;outlineConnect=0;targetShapes=umlLifeline;portConstraint=eastwest;newEdgeStyle={&quot;curved&quot;:0,&quot;rounded&quot;:0};strokeColor=#000000;fillColor=#dae8fc;" parent="1" vertex="1">
          <mxGeometry x="195" y="65" width="10" height="80" as="geometry" />
        </mxCell>
        <mxCell id="prv6S9n90Um1sJ-O_oQ2-16" value="" style="endArrow=classic;html=1;rounded=0;" parent="1" source="prv6S9n90Um1sJ-O_oQ2-72" edge="1">
          <mxGeometry width="50" height="50" relative="1" as="geometry">
            <mxPoint x="30" y="100" as="sourcePoint" />
            <mxPoint x="195" y="100" as="targetPoint" />
          </mxGeometry>
        </mxCell>
        <mxCell id="prv6S9n90Um1sJ-O_oQ2-17" value="click Register" style="text;html=1;align=center;verticalAlign=middle;resizable=0;points=[];autosize=1;strokeColor=none;fillColor=none;fontSize=13;fontStyle=2" parent="1" vertex="1">
          <mxGeometry x="55" y="70" width="100" height="30" as="geometry" />
        </mxCell>
        <mxCell id="prv6S9n90Um1sJ-O_oQ2-18" value="AuthController" style="rounded=0;whiteSpace=wrap;html=1;fontSize=14;fontStyle=1" parent="1" vertex="1">
          <mxGeometry x="520" y="-10" width="120" height="40" as="geometry" />
        </mxCell>
        <mxCell id="prv6S9n90Um1sJ-O_oQ2-19" value="" style="endArrow=none;dashed=1;html=1;rounded=0;" parent="1" source="prv6S9n90Um1sJ-O_oQ2-20" target="prv6S9n90Um1sJ-O_oQ2-18" edge="1">
          <mxGeometry width="50" height="50" relative="1" as="geometry">
            <mxPoint x="579.5" y="836" as="sourcePoint" />
            <mxPoint x="579.5" y="30" as="targetPoint" />
          </mxGeometry>
        </mxCell>
        <mxCell id="prv6S9n90Um1sJ-O_oQ2-21" value="" style="endArrow=classic;html=1;rounded=0;" parent="1" source="prv6S9n90Um1sJ-O_oQ2-27" target="prv6S9n90Um1sJ-O_oQ2-20" edge="1">
          <mxGeometry width="50" height="50" relative="1" as="geometry">
            <mxPoint x="670" y="80" as="sourcePoint" />
            <mxPoint x="835" y="80" as="targetPoint" />
            <Array as="points">
              <mxPoint x="630" y="160" />
            </Array>
          </mxGeometry>
        </mxCell>
        <mxCell id="prv6S9n90Um1sJ-O_oQ2-22" value="" style="endArrow=none;dashed=1;html=1;rounded=0;" parent="1" target="prv6S9n90Um1sJ-O_oQ2-20" edge="1">
          <mxGeometry width="50" height="50" relative="1" as="geometry">
            <mxPoint x="579.5" y="836" as="sourcePoint" />
            <mxPoint x="580" y="30" as="targetPoint" />
          </mxGeometry>
        </mxCell>
        <mxCell id="prv6S9n90Um1sJ-O_oQ2-20" value="" style="html=1;points=[[0,0,0,0,5],[0,1,0,0,-5],[1,0,0,0,5],[1,1,0,0,-5]];perimeter=orthogonalPerimeter;outlineConnect=0;targetShapes=umlLifeline;portConstraint=eastwest;newEdgeStyle={&quot;curved&quot;:0,&quot;rounded&quot;:0};strokeColor=#000000;fillColor=#dae8fc;" parent="1" vertex="1">
          <mxGeometry x="575" y="140" width="10" height="1260" as="geometry" />
        </mxCell>
        <mxCell id="prv6S9n90Um1sJ-O_oQ2-23" value="register()" style="text;html=1;align=center;verticalAlign=middle;resizable=0;points=[];autosize=1;strokeColor=none;fillColor=none;fontStyle=2;fontSize=13;" parent="1" vertex="1">
          <mxGeometry x="635" y="130" width="80" height="30" as="geometry" />
        </mxCell>
        <mxCell id="prv6S9n90Um1sJ-O_oQ2-24" value="signup" style="rounded=0;whiteSpace=wrap;html=1;fontSize=14;fontStyle=1" parent="1" vertex="1">
          <mxGeometry x="700" y="-10" width="120" height="40" as="geometry" />
        </mxCell>
        <mxCell id="prv6S9n90Um1sJ-O_oQ2-25" value="" style="endArrow=none;dashed=1;html=1;rounded=0;" parent="1" source="prv6S9n90Um1sJ-O_oQ2-27" edge="1">
          <mxGeometry width="50" height="50" relative="1" as="geometry">
            <mxPoint x="760" y="850" as="sourcePoint" />
            <mxPoint x="760" y="30" as="targetPoint" />
          </mxGeometry>
        </mxCell>
        <mxCell id="prv6S9n90Um1sJ-O_oQ2-26" value="" style="endArrow=classic;html=1;rounded=0;" parent="1" edge="1">
          <mxGeometry width="50" height="50" relative="1" as="geometry">
            <mxPoint x="205" y="120" as="sourcePoint" />
            <mxPoint x="750" y="120" as="targetPoint" />
          </mxGeometry>
        </mxCell>
        <mxCell id="prv6S9n90Um1sJ-O_oQ2-28" value="" style="endArrow=none;dashed=1;html=1;rounded=0;" parent="1" source="prv6S9n90Um1sJ-O_oQ2-156" target="prv6S9n90Um1sJ-O_oQ2-27" edge="1">
          <mxGeometry width="50" height="50" relative="1" as="geometry">
            <mxPoint x="760" y="850" as="sourcePoint" />
            <mxPoint x="760" y="30" as="targetPoint" />
          </mxGeometry>
        </mxCell>
        <mxCell id="prv6S9n90Um1sJ-O_oQ2-27" value="" style="html=1;points=[[0,0,0,0,5],[0,1,0,0,-5],[1,0,0,0,5],[1,1,0,0,-5]];perimeter=orthogonalPerimeter;outlineConnect=0;targetShapes=umlLifeline;portConstraint=eastwest;newEdgeStyle={&quot;curved&quot;:0,&quot;rounded&quot;:0};strokeColor=#000000;fillColor=#dae8fc;" parent="1" vertex="1">
          <mxGeometry x="755" y="100" width="10" height="70" as="geometry" />
        </mxCell>
        <mxCell id="prv6S9n90Um1sJ-O_oQ2-30" value="fill user details &amp;amp; click register" style="text;html=1;align=center;verticalAlign=middle;resizable=0;points=[];autosize=1;strokeColor=none;fillColor=none;fontSize=13;fontStyle=2" parent="1" vertex="1">
          <mxGeometry x="15" y="190" width="190" height="30" as="geometry" />
        </mxCell>
        <mxCell id="prv6S9n90Um1sJ-O_oQ2-32" value="&lt;span&gt;&lt;font&gt;User&lt;/font&gt;&lt;/span&gt;" style="shape=umlLifeline;perimeter=lifelinePerimeter;whiteSpace=wrap;html=1;container=1;dropTarget=0;collapsible=0;recursiveResize=0;outlineConnect=0;portConstraint=eastwest;newEdgeStyle={&quot;curved&quot;:0,&quot;rounded&quot;:0};fontSize=14;fontStyle=1" parent="1" vertex="1">
          <mxGeometry x="880" y="-10" width="100" height="1440" as="geometry" />
        </mxCell>
        <mxCell id="prv6S9n90Um1sJ-O_oQ2-40" value="" style="html=1;points=[[0,0,0,0,5],[0,1,0,0,-5],[1,0,0,0,5],[1,1,0,0,-5]];perimeter=orthogonalPerimeter;outlineConnect=0;targetShapes=umlLifeline;portConstraint=eastwest;newEdgeStyle={&quot;curved&quot;:0,&quot;rounded&quot;:0};strokeColor=#000000;fillColor=#dae8fc;" parent="prv6S9n90Um1sJ-O_oQ2-32" vertex="1">
          <mxGeometry x="45" y="180" width="10" height="50" as="geometry" />
        </mxCell>
        <mxCell id="prv6S9n90Um1sJ-O_oQ2-33" value="alt" style="shape=umlFrame;whiteSpace=wrap;html=1;pointerEvents=0;" parent="1" vertex="1">
          <mxGeometry x="440" y="580" width="1980" height="882" as="geometry" />
        </mxCell>
        <mxCell id="prv6S9n90Um1sJ-O_oQ2-34" value="" style="endArrow=classic;html=1;rounded=0;" parent="1" edge="1">
          <mxGeometry width="50" height="50" relative="1" as="geometry">
            <mxPoint x="760" y="270.5" as="sourcePoint" />
            <mxPoint x="585" y="270" as="targetPoint" />
          </mxGeometry>
        </mxCell>
        <mxCell id="prv6S9n90Um1sJ-O_oQ2-35" value="registerUser()" style="text;html=1;align=center;verticalAlign=middle;resizable=0;points=[];autosize=1;strokeColor=none;fillColor=none;fontSize=13;fontStyle=2" parent="1" vertex="1">
          <mxGeometry x="620" y="235" width="100" height="30" as="geometry" />
        </mxCell>
        <mxCell id="prv6S9n90Um1sJ-O_oQ2-37" value="(Valid Data)" style="text;html=1;align=center;verticalAlign=middle;resizable=0;points=[];autosize=1;strokeColor=#666666;fillColor=#f5f5f5;fontSize=14;fontStyle=2;fontColor=#333333;" parent="1" vertex="1">
          <mxGeometry x="620" y="580" width="100" height="30" as="geometry" />
        </mxCell>
        <mxCell id="prv6S9n90Um1sJ-O_oQ2-41" value="" style="endArrow=classic;html=1;rounded=0;entryX=0;entryY=0;entryDx=0;entryDy=5;entryPerimeter=0;exitX=0.667;exitY=0.311;exitDx=0;exitDy=0;exitPerimeter=0;" parent="1" source="prv6S9n90Um1sJ-O_oQ2-72" target="prv6S9n90Um1sJ-O_oQ2-69" edge="1">
          <mxGeometry width="50" height="50" relative="1" as="geometry">
            <mxPoint x="150" y="230" as="sourcePoint" />
            <mxPoint x="749.88" y="228" as="targetPoint" />
          </mxGeometry>
        </mxCell>
        <mxCell id="prv6S9n90Um1sJ-O_oQ2-43" value="Student" style="shape=umlLifeline;perimeter=lifelinePerimeter;whiteSpace=wrap;html=1;container=1;dropTarget=0;collapsible=0;recursiveResize=0;outlineConnect=0;portConstraint=eastwest;newEdgeStyle={&quot;curved&quot;:0,&quot;rounded&quot;:0};fontSize=14;fontStyle=1" parent="1" vertex="1">
          <mxGeometry x="1040" y="-10" width="100" height="1440" as="geometry" />
        </mxCell>
        <mxCell id="prv6S9n90Um1sJ-O_oQ2-50" value="EmailService" style="shape=umlLifeline;perimeter=lifelinePerimeter;whiteSpace=wrap;html=1;container=1;dropTarget=0;collapsible=0;recursiveResize=0;outlineConnect=0;portConstraint=eastwest;newEdgeStyle={&quot;curved&quot;:0,&quot;rounded&quot;:0};fontSize=14;fontStyle=1" parent="1" vertex="1">
          <mxGeometry x="1180" y="-10" width="190" height="1440" as="geometry" />
        </mxCell>
        <mxCell id="prv6S9n90Um1sJ-O_oQ2-151" value="" style="html=1;points=[[0,0,0,0,5],[0,1,0,0,-5],[1,0,0,0,5],[1,1,0,0,-5]];perimeter=orthogonalPerimeter;outlineConnect=0;targetShapes=umlLifeline;portConstraint=eastwest;newEdgeStyle={&quot;curved&quot;:0,&quot;rounded&quot;:0};strokeColor=#000000;fillColor=#dae8fc;" parent="prv6S9n90Um1sJ-O_oQ2-50" vertex="1">
          <mxGeometry x="90" y="920" width="10" height="50" as="geometry" />
        </mxCell>
        <mxCell id="prv6S9n90Um1sJ-O_oQ2-52" value="" style="endArrow=classic;html=1;rounded=0;" parent="1" target="prv6S9n90Um1sJ-O_oQ2-82" edge="1">
          <mxGeometry width="50" height="50" relative="1" as="geometry">
            <mxPoint x="585" y="790" as="sourcePoint" />
            <mxPoint x="1667.5" y="790" as="targetPoint" />
            <Array as="points">
              <mxPoint x="1650" y="790" />
            </Array>
          </mxGeometry>
        </mxCell>
        <mxCell id="prv6S9n90Um1sJ-O_oQ2-59" value="" style="endArrow=none;dashed=1;html=1;rounded=0;" parent="1" target="prv6S9n90Um1sJ-O_oQ2-58" edge="1">
          <mxGeometry width="50" height="50" relative="1" as="geometry">
            <mxPoint x="385" y="1008" as="sourcePoint" />
            <mxPoint x="390" y="30" as="targetPoint" />
          </mxGeometry>
        </mxCell>
        <mxCell id="prv6S9n90Um1sJ-O_oQ2-58" value="" style="html=1;points=[[0,0,0,0,5],[0,1,0,0,-5],[1,0,0,0,5],[1,1,0,0,-5]];perimeter=orthogonalPerimeter;outlineConnect=0;targetShapes=umlLifeline;portConstraint=eastwest;newEdgeStyle={&quot;curved&quot;:0,&quot;rounded&quot;:0};strokeColor=#000000;fillColor=#dae8fc;" parent="1" vertex="1">
          <mxGeometry x="385" y="70" width="10" height="40" as="geometry" />
        </mxCell>
        <mxCell id="prv6S9n90Um1sJ-O_oQ2-62" value="&quot;call&quot;" style="text;html=1;align=center;verticalAlign=middle;resizable=0;points=[];autosize=1;strokeColor=none;fillColor=none;" parent="1" vertex="1">
          <mxGeometry x="270" y="90" width="50" height="30" as="geometry" />
        </mxCell>
        <mxCell id="prv6S9n90Um1sJ-O_oQ2-69" value="" style="html=1;points=[[0,0,0,0,5],[0,1,0,0,-5],[1,0,0,0,5],[1,1,0,0,-5]];perimeter=orthogonalPerimeter;outlineConnect=0;targetShapes=umlLifeline;portConstraint=eastwest;newEdgeStyle={&quot;curved&quot;:0,&quot;rounded&quot;:0};strokeColor=#000000;fillColor=#dae8fc;" parent="1" vertex="1">
          <mxGeometry x="755" y="220" width="10" height="70" as="geometry" />
        </mxCell>
        <mxCell id="prv6S9n90Um1sJ-O_oQ2-72" value="" style="shape=umlLifeline;perimeter=lifelinePerimeter;whiteSpace=wrap;html=1;container=1;dropTarget=0;collapsible=0;recursiveResize=0;outlineConnect=0;portConstraint=eastwest;newEdgeStyle={&quot;curved&quot;:0,&quot;rounded&quot;:0};participant=umlActor;" parent="1" vertex="1">
          <mxGeometry x="-120" y="-10" width="30" height="760" as="geometry" />
        </mxCell>
        <mxCell id="prv6S9n90Um1sJ-O_oQ2-77" value="StudentService" style="shape=umlLifeline;perimeter=lifelinePerimeter;whiteSpace=wrap;html=1;container=1;dropTarget=0;collapsible=0;recursiveResize=0;outlineConnect=0;portConstraint=eastwest;newEdgeStyle={&quot;curved&quot;:0,&quot;rounded&quot;:0};fontSize=14;fontStyle=1" parent="1" vertex="1">
          <mxGeometry x="1440" y="-10" width="110" height="910" as="geometry" />
        </mxCell>
        <mxCell id="prv6S9n90Um1sJ-O_oQ2-119" value="" style="html=1;points=[[0,0,0,0,5],[0,1,0,0,-5],[1,0,0,0,5],[1,1,0,0,-5]];perimeter=orthogonalPerimeter;outlineConnect=0;targetShapes=umlLifeline;portConstraint=eastwest;newEdgeStyle={&quot;curved&quot;:0,&quot;rounded&quot;:0};strokeColor=#000000;fillColor=#dae8fc;" parent="prv6S9n90Um1sJ-O_oQ2-77" vertex="1">
          <mxGeometry x="50" y="820" width="10" height="90" as="geometry" />
        </mxCell>
        <mxCell id="prv6S9n90Um1sJ-O_oQ2-81" value="Non Valid password" style="text;html=1;align=center;verticalAlign=middle;resizable=0;points=[];autosize=1;strokeColor=#666666;fillColor=#f5f5f5;fontSize=14;fontStyle=2;fontColor=#333333;" parent="1" vertex="1">
          <mxGeometry x="600" y="1000" width="150" height="30" as="geometry" />
        </mxCell>
        <mxCell id="prv6S9n90Um1sJ-O_oQ2-82" value="UserService" style="shape=umlLifeline;perimeter=lifelinePerimeter;whiteSpace=wrap;html=1;container=1;dropTarget=0;collapsible=0;recursiveResize=0;outlineConnect=0;portConstraint=eastwest;newEdgeStyle={&quot;curved&quot;:0,&quot;rounded&quot;:0};fontSize=14;fontStyle=1" parent="1" vertex="1">
          <mxGeometry x="1630" y="-10" width="100" height="970" as="geometry" />
        </mxCell>
        <mxCell id="prv6S9n90Um1sJ-O_oQ2-46" value="" style="html=1;points=[[0,0,0,0,5],[0,1,0,0,-5],[1,0,0,0,5],[1,1,0,0,-5]];perimeter=orthogonalPerimeter;outlineConnect=0;targetShapes=umlLifeline;portConstraint=eastwest;newEdgeStyle={&quot;curved&quot;:0,&quot;rounded&quot;:0};strokeColor=#000000;fillColor=#dae8fc;" parent="prv6S9n90Um1sJ-O_oQ2-82" vertex="1">
          <mxGeometry x="45" y="740" width="10" height="90" as="geometry" />
        </mxCell>
        <mxCell id="prv6S9n90Um1sJ-O_oQ2-83" value="" style="endArrow=classic;html=1;rounded=0;" parent="1" source="prv6S9n90Um1sJ-O_oQ2-86" target="prv6S9n90Um1sJ-O_oQ2-82" edge="1">
          <mxGeometry width="50" height="50" relative="1" as="geometry">
            <mxPoint x="585" y="390" as="sourcePoint" />
            <mxPoint x="920" y="390" as="targetPoint" />
          </mxGeometry>
        </mxCell>
        <mxCell id="prv6S9n90Um1sJ-O_oQ2-84" value="existsByUsername()" style="text;html=1;align=center;verticalAlign=middle;resizable=0;points=[];autosize=1;strokeColor=none;fillColor=none;fontSize=13;fontStyle=2" parent="1" vertex="1">
          <mxGeometry x="600" y="355" width="140" height="30" as="geometry" />
        </mxCell>
        <mxCell id="prv6S9n90Um1sJ-O_oQ2-85" value="UserDAORepository" style="shape=umlLifeline;perimeter=lifelinePerimeter;whiteSpace=wrap;html=1;container=1;dropTarget=0;collapsible=0;recursiveResize=0;outlineConnect=0;portConstraint=eastwest;newEdgeStyle={&quot;curved&quot;:0,&quot;rounded&quot;:0};fontSize=14;fontStyle=1" parent="1" vertex="1">
          <mxGeometry x="1810" y="-10" width="170" height="970" as="geometry" />
        </mxCell>
        <mxCell id="prv6S9n90Um1sJ-O_oQ2-88" value="" style="html=1;points=[[0,0,0,0,5],[0,1,0,0,-5],[1,0,0,0,5],[1,1,0,0,-5]];perimeter=orthogonalPerimeter;outlineConnect=0;targetShapes=umlLifeline;portConstraint=eastwest;newEdgeStyle={&quot;curved&quot;:0,&quot;rounded&quot;:0};strokeColor=#000000;fillColor=#dae8fc;" parent="prv6S9n90Um1sJ-O_oQ2-85" vertex="1">
          <mxGeometry x="80" y="395" width="10" height="195" as="geometry" />
        </mxCell>
        <mxCell id="prv6S9n90Um1sJ-O_oQ2-51" value="" style="html=1;points=[[0,0,0,0,5],[0,1,0,0,-5],[1,0,0,0,5],[1,1,0,0,-5]];perimeter=orthogonalPerimeter;outlineConnect=0;targetShapes=umlLifeline;portConstraint=eastwest;newEdgeStyle={&quot;curved&quot;:0,&quot;rounded&quot;:0};strokeColor=#000000;fillColor=#dae8fc;" parent="prv6S9n90Um1sJ-O_oQ2-85" vertex="1">
          <mxGeometry x="80" y="780" width="10" height="50" as="geometry" />
        </mxCell>
        <mxCell id="prv6S9n90Um1sJ-O_oQ2-87" value="" style="endArrow=classic;html=1;rounded=0;exitX=1;exitY=1;exitDx=0;exitDy=-5;exitPerimeter=0;" parent="1" edge="1">
          <mxGeometry width="50" height="50" relative="1" as="geometry">
            <mxPoint x="1685" y="410" as="sourcePoint" />
            <mxPoint x="1890" y="410" as="targetPoint" />
          </mxGeometry>
        </mxCell>
        <mxCell id="prv6S9n90Um1sJ-O_oQ2-89" value="existsByUsername()" style="text;html=1;align=center;verticalAlign=middle;resizable=0;points=[];autosize=1;strokeColor=none;fillColor=none;fontSize=13;fontStyle=2" parent="1" vertex="1">
          <mxGeometry x="1710" y="380" width="140" height="30" as="geometry" />
        </mxCell>
        <mxCell id="prv6S9n90Um1sJ-O_oQ2-90" value="Database (MySQL)" style="shape=umlLifeline;perimeter=lifelinePerimeter;whiteSpace=wrap;html=1;container=1;dropTarget=0;collapsible=0;recursiveResize=0;outlineConnect=0;portConstraint=eastwest;newEdgeStyle={&quot;curved&quot;:0,&quot;rounded&quot;:0};fontSize=14;fontStyle=1" parent="1" vertex="1">
          <mxGeometry x="2260" y="-10" width="100" height="970" as="geometry" />
        </mxCell>
        <mxCell id="prv6S9n90Um1sJ-O_oQ2-91" value="" style="html=1;points=[[0,0,0,0,5],[0,1,0,0,-5],[1,0,0,0,5],[1,1,0,0,-5]];perimeter=orthogonalPerimeter;outlineConnect=0;targetShapes=umlLifeline;portConstraint=eastwest;newEdgeStyle={&quot;curved&quot;:0,&quot;rounded&quot;:0};strokeColor=#000000;fillColor=#dae8fc;" parent="prv6S9n90Um1sJ-O_oQ2-90" vertex="1">
          <mxGeometry x="45" y="420" width="10" height="170" as="geometry" />
        </mxCell>
        <mxCell id="prv6S9n90Um1sJ-O_oQ2-121" value="" style="html=1;points=[[0,0,0,0,5],[0,1,0,0,-5],[1,0,0,0,5],[1,1,0,0,-5]];perimeter=orthogonalPerimeter;outlineConnect=0;targetShapes=umlLifeline;portConstraint=eastwest;newEdgeStyle={&quot;curved&quot;:0,&quot;rounded&quot;:0};strokeColor=#000000;fillColor=#dae8fc;" parent="prv6S9n90Um1sJ-O_oQ2-90" vertex="1">
          <mxGeometry x="45" y="790" width="10" height="50" as="geometry" />
        </mxCell>
        <mxCell id="prv6S9n90Um1sJ-O_oQ2-135" value="" style="html=1;points=[[0,0,0,0,5],[0,1,0,0,-5],[1,0,0,0,5],[1,1,0,0,-5]];perimeter=orthogonalPerimeter;outlineConnect=0;targetShapes=umlLifeline;portConstraint=eastwest;newEdgeStyle={&quot;curved&quot;:0,&quot;rounded&quot;:0};strokeColor=#000000;fillColor=#dae8fc;" parent="prv6S9n90Um1sJ-O_oQ2-90" vertex="1">
          <mxGeometry x="45" y="880" width="10" height="80" as="geometry" />
        </mxCell>
        <mxCell id="prv6S9n90Um1sJ-O_oQ2-92" value="" style="endArrow=classic;html=1;rounded=0;" parent="1" target="prv6S9n90Um1sJ-O_oQ2-86" edge="1">
          <mxGeometry width="50" height="50" relative="1" as="geometry">
            <mxPoint x="585" y="390" as="sourcePoint" />
            <mxPoint x="1679" y="390" as="targetPoint" />
          </mxGeometry>
        </mxCell>
        <mxCell id="prv6S9n90Um1sJ-O_oQ2-86" value="" style="html=1;points=[[0,0,0,0,5],[0,1,0,0,-5],[1,0,0,0,5],[1,1,0,0,-5]];perimeter=orthogonalPerimeter;outlineConnect=0;targetShapes=umlLifeline;portConstraint=eastwest;newEdgeStyle={&quot;curved&quot;:0,&quot;rounded&quot;:0};strokeColor=#000000;fillColor=#dae8fc;" parent="1" vertex="1">
          <mxGeometry x="1675" y="370" width="10" height="140" as="geometry" />
        </mxCell>
        <mxCell id="prv6S9n90Um1sJ-O_oQ2-93" value="" style="endArrow=classic;html=1;rounded=0;exitX=1;exitY=1;exitDx=0;exitDy=-5;exitPerimeter=0;" parent="1" target="prv6S9n90Um1sJ-O_oQ2-90" edge="1">
          <mxGeometry width="50" height="50" relative="1" as="geometry">
            <mxPoint x="1900" y="430" as="sourcePoint" />
            <mxPoint x="2105" y="430" as="targetPoint" />
          </mxGeometry>
        </mxCell>
        <mxCell id="prv6S9n90Um1sJ-O_oQ2-94" value="&quot;call&quot;" style="text;html=1;align=center;verticalAlign=middle;resizable=0;points=[];autosize=1;strokeColor=none;fillColor=none;fontSize=13;fontStyle=2" parent="1" vertex="1">
          <mxGeometry x="1965" y="398" width="50" height="30" as="geometry" />
        </mxCell>
        <mxCell id="prv6S9n90Um1sJ-O_oQ2-95" value="&lt;font style=&quot;font-size: 13px;&quot;&gt;&lt;i&gt;return boolean&lt;/i&gt;&lt;/font&gt;" style="html=1;verticalAlign=bottom;endArrow=open;dashed=1;endSize=8;curved=0;rounded=0;" parent="1" source="prv6S9n90Um1sJ-O_oQ2-91" edge="1">
          <mxGeometry x="-0.4815" relative="1" as="geometry">
            <mxPoint x="2060" y="460" as="sourcePoint" />
            <mxPoint x="1899.9999999999995" y="460" as="targetPoint" />
            <Array as="points">
              <mxPoint x="1960" y="460" />
            </Array>
            <mxPoint as="offset" />
          </mxGeometry>
        </mxCell>
        <mxCell id="prv6S9n90Um1sJ-O_oQ2-98" value="" style="endArrow=classic;html=1;rounded=0;" parent="1" edge="1">
          <mxGeometry width="50" height="50" relative="1" as="geometry">
            <mxPoint x="585" y="460" as="sourcePoint" />
            <mxPoint x="1675" y="460" as="targetPoint" />
          </mxGeometry>
        </mxCell>
        <mxCell id="prv6S9n90Um1sJ-O_oQ2-99" value="existsByEmail()" style="text;html=1;align=center;verticalAlign=middle;resizable=0;points=[];autosize=1;strokeColor=none;fillColor=none;fontSize=13;fontStyle=2" parent="1" vertex="1">
          <mxGeometry x="615" y="428" width="110" height="30" as="geometry" />
        </mxCell>
        <mxCell id="prv6S9n90Um1sJ-O_oQ2-100" value="existsByEmail()" style="text;html=1;align=center;verticalAlign=middle;resizable=0;points=[];autosize=1;strokeColor=none;fillColor=none;fontSize=13;fontStyle=2" parent="1" vertex="1">
          <mxGeometry x="1720" y="470" width="110" height="30" as="geometry" />
        </mxCell>
        <mxCell id="prv6S9n90Um1sJ-O_oQ2-101" value="" style="endArrow=classic;html=1;rounded=0;exitX=1;exitY=1;exitDx=0;exitDy=-5;exitPerimeter=0;" parent="1" edge="1">
          <mxGeometry width="50" height="50" relative="1" as="geometry">
            <mxPoint x="1685" y="500" as="sourcePoint" />
            <mxPoint x="1890" y="500" as="targetPoint" />
          </mxGeometry>
        </mxCell>
        <mxCell id="prv6S9n90Um1sJ-O_oQ2-102" value="" style="endArrow=classic;html=1;rounded=0;exitX=1;exitY=1;exitDx=0;exitDy=-5;exitPerimeter=0;" parent="1" target="prv6S9n90Um1sJ-O_oQ2-90" edge="1">
          <mxGeometry width="50" height="50" relative="1" as="geometry">
            <mxPoint x="1900.5" y="540" as="sourcePoint" />
            <mxPoint x="2079.5" y="540" as="targetPoint" />
          </mxGeometry>
        </mxCell>
        <mxCell id="prv6S9n90Um1sJ-O_oQ2-103" value="&quot;call&quot;" style="text;html=1;align=center;verticalAlign=middle;resizable=0;points=[];autosize=1;strokeColor=none;fillColor=none;fontSize=13;fontStyle=2" parent="1" vertex="1">
          <mxGeometry x="1965" y="510" width="50" height="30" as="geometry" />
        </mxCell>
        <mxCell id="prv6S9n90Um1sJ-O_oQ2-104" value="&lt;font style=&quot;font-size: 13px;&quot;&gt;&lt;i&gt;return boolean&lt;/i&gt;&lt;/font&gt;" style="html=1;verticalAlign=bottom;endArrow=open;dashed=1;endSize=8;curved=0;rounded=0;" parent="1" source="prv6S9n90Um1sJ-O_oQ2-90" edge="1">
          <mxGeometry x="-0.4709" relative="1" as="geometry">
            <mxPoint x="2075" y="570" as="sourcePoint" />
            <mxPoint x="1899.9999999999995" y="570" as="targetPoint" />
            <Array as="points">
              <mxPoint x="1960" y="570" />
            </Array>
            <mxPoint as="offset" />
          </mxGeometry>
        </mxCell>
        <mxCell id="prv6S9n90Um1sJ-O_oQ2-105" value="" style="html=1;points=[[0,0,0,0,5],[0,1,0,0,-5],[1,0,0,0,5],[1,1,0,0,-5]];perimeter=orthogonalPerimeter;outlineConnect=0;targetShapes=umlLifeline;portConstraint=eastwest;newEdgeStyle={&quot;curved&quot;:0,&quot;rounded&quot;:0};strokeColor=#000000;fillColor=#dae8fc;" parent="1" vertex="1">
          <mxGeometry x="1085" y="580" width="10" height="90" as="geometry" />
        </mxCell>
        <mxCell id="prv6S9n90Um1sJ-O_oQ2-111" value="" style="endArrow=classic;html=1;rounded=0;" parent="1" edge="1">
          <mxGeometry width="50" height="50" relative="1" as="geometry">
            <mxPoint x="590" y="658" as="sourcePoint" />
            <mxPoint x="1090" y="658" as="targetPoint" />
          </mxGeometry>
        </mxCell>
        <mxCell id="prv6S9n90Um1sJ-O_oQ2-112" value="setUser()" style="text;html=1;align=center;verticalAlign=middle;resizable=0;points=[];autosize=1;strokeColor=none;fillColor=none;fontSize=13;fontStyle=2" parent="1" vertex="1">
          <mxGeometry x="640" y="628" width="80" height="30" as="geometry" />
        </mxCell>
        <mxCell id="prv6S9n90Um1sJ-O_oQ2-114" value="saveUser()" style="text;html=1;align=center;verticalAlign=middle;resizable=0;points=[];autosize=1;strokeColor=none;fillColor=none;fontStyle=2;fontSize=13;" parent="1" vertex="1">
          <mxGeometry x="610" y="758" width="90" height="30" as="geometry" />
        </mxCell>
        <mxCell id="prv6S9n90Um1sJ-O_oQ2-115" value="" style="endArrow=classic;html=1;rounded=0;" parent="1" edge="1">
          <mxGeometry width="50" height="50" relative="1" as="geometry">
            <mxPoint x="1684.9999999999995" y="810" as="sourcePoint" />
            <mxPoint x="1894.4999999999995" y="810" as="targetPoint" />
          </mxGeometry>
        </mxCell>
        <mxCell id="prv6S9n90Um1sJ-O_oQ2-116" value="save()" style="text;html=1;align=center;verticalAlign=middle;resizable=0;points=[];autosize=1;strokeColor=none;fillColor=none;fontSize=13;fontStyle=2" parent="1" vertex="1">
          <mxGeometry x="1760" y="780" width="60" height="30" as="geometry" />
        </mxCell>
        <mxCell id="prv6S9n90Um1sJ-O_oQ2-117" value="" style="endArrow=classic;html=1;rounded=0;" parent="1" target="prv6S9n90Um1sJ-O_oQ2-77" edge="1">
          <mxGeometry width="50" height="50" relative="1" as="geometry">
            <mxPoint x="585" y="830" as="sourcePoint" />
            <mxPoint x="1430" y="830" as="targetPoint" />
          </mxGeometry>
        </mxCell>
        <mxCell id="prv6S9n90Um1sJ-O_oQ2-118" value="saveProfile()" style="text;html=1;align=center;verticalAlign=middle;resizable=0;points=[];autosize=1;strokeColor=none;fillColor=none;fontSize=13;fontStyle=2" parent="1" vertex="1">
          <mxGeometry x="615" y="800" width="100" height="30" as="geometry" />
        </mxCell>
        <mxCell id="prv6S9n90Um1sJ-O_oQ2-127" value="StudentDAORepository" style="shape=umlLifeline;perimeter=lifelinePerimeter;whiteSpace=wrap;html=1;container=1;dropTarget=0;collapsible=0;recursiveResize=0;outlineConnect=0;portConstraint=eastwest;newEdgeStyle={&quot;curved&quot;:0,&quot;rounded&quot;:0};fontSize=14;fontStyle=1" parent="1" vertex="1">
          <mxGeometry x="2040" y="-10" width="170" height="1018" as="geometry" />
        </mxCell>
        <mxCell id="prv6S9n90Um1sJ-O_oQ2-128" value="" style="html=1;points=[[0,0,0,0,5],[0,1,0,0,-5],[1,0,0,0,5],[1,1,0,0,-5]];perimeter=orthogonalPerimeter;outlineConnect=0;targetShapes=umlLifeline;portConstraint=eastwest;newEdgeStyle={&quot;curved&quot;:0,&quot;rounded&quot;:0};strokeColor=#000000;fillColor=#dae8fc;" parent="prv6S9n90Um1sJ-O_oQ2-127" vertex="1">
          <mxGeometry x="80" y="870" width="10" height="80" as="geometry" />
        </mxCell>
        <mxCell id="prv6S9n90Um1sJ-O_oQ2-133" value="" style="endArrow=classic;html=1;rounded=0;" parent="1" target="prv6S9n90Um1sJ-O_oQ2-127" edge="1">
          <mxGeometry width="50" height="50" relative="1" as="geometry">
            <mxPoint x="1500.4999999999995" y="882" as="sourcePoint" />
            <mxPoint x="1709.9999999999995" y="882" as="targetPoint" />
          </mxGeometry>
        </mxCell>
        <mxCell id="prv6S9n90Um1sJ-O_oQ2-134" value="save()" style="text;html=1;align=center;verticalAlign=middle;resizable=0;points=[];autosize=1;strokeColor=none;fillColor=none;fontSize=13;fontStyle=2" parent="1" vertex="1">
          <mxGeometry x="1565.5" y="850" width="60" height="30" as="geometry" />
        </mxCell>
        <mxCell id="prv6S9n90Um1sJ-O_oQ2-139" value="&quot;create&quot;" style="html=1;verticalAlign=bottom;endArrow=open;dashed=1;endSize=8;curved=0;rounded=0;fontSize=13;fontStyle=2" parent="1" edge="1">
          <mxGeometry relative="1" as="geometry">
            <mxPoint x="575" y="204.57999999999998" as="sourcePoint" />
            <mxPoint x="919.5" y="204.57999999999998" as="targetPoint" />
          </mxGeometry>
        </mxCell>
        <mxCell id="prv6S9n90Um1sJ-O_oQ2-140" value="&quot;create&quot;" style="html=1;verticalAlign=bottom;endArrow=open;dashed=1;endSize=8;curved=0;rounded=0;fontSize=13;fontStyle=2" parent="1" edge="1">
          <mxGeometry relative="1" as="geometry">
            <mxPoint x="580.5" y="620" as="sourcePoint" />
            <mxPoint x="1085" y="620" as="targetPoint" />
          </mxGeometry>
        </mxCell>
        <mxCell id="prv6S9n90Um1sJ-O_oQ2-142" value="&quot;create User&quot;" style="html=1;verticalAlign=bottom;endArrow=open;dashed=1;endSize=8;curved=0;rounded=0;fontSize=13;fontStyle=2" parent="1" edge="1">
          <mxGeometry relative="1" as="geometry">
            <mxPoint x="1900" y="814.5" as="sourcePoint" />
            <mxPoint x="2309.4999999999995" y="814.5" as="targetPoint" />
          </mxGeometry>
        </mxCell>
        <mxCell id="prv6S9n90Um1sJ-O_oQ2-143" value="&quot;create Student Profile&quot;" style="html=1;verticalAlign=bottom;endArrow=open;dashed=1;endSize=8;curved=0;rounded=0;fontSize=13;fontStyle=2" parent="1" edge="1">
          <mxGeometry relative="1" as="geometry">
            <mxPoint x="2130" y="910" as="sourcePoint" />
            <mxPoint x="2309.4999999999995" y="910" as="targetPoint" />
          </mxGeometry>
        </mxCell>
        <mxCell id="prv6S9n90Um1sJ-O_oQ2-144" value="" style="endArrow=classic;html=1;rounded=0;" parent="1" target="prv6S9n90Um1sJ-O_oQ2-50" edge="1">
          <mxGeometry width="50" height="50" relative="1" as="geometry">
            <mxPoint x="585" y="940" as="sourcePoint" />
            <mxPoint x="1130" y="940" as="targetPoint" />
          </mxGeometry>
        </mxCell>
        <mxCell id="prv6S9n90Um1sJ-O_oQ2-145" value="&lt;font style=&quot;font-size: 13px;&quot;&gt;&lt;i&gt;generateVerificationCode()&lt;/i&gt;&lt;/font&gt;" style="html=1;align=left;spacingLeft=2;endArrow=block;rounded=0;edgeStyle=orthogonalEdgeStyle;curved=0;rounded=0;" parent="1" edge="1">
          <mxGeometry relative="1" as="geometry">
            <mxPoint x="585.0200000000001" y="670" as="sourcePoint" />
            <Array as="points">
              <mxPoint x="615.0200000000001" y="700" />
            </Array>
            <mxPoint x="590.0200000000001" y="700" as="targetPoint" />
          </mxGeometry>
        </mxCell>
        <mxCell id="prv6S9n90Um1sJ-O_oQ2-146" value="&lt;font style=&quot;font-size: 13px;&quot;&gt;&lt;i&gt;isValidPassword()&lt;/i&gt;&lt;/font&gt;" style="html=1;align=left;spacingLeft=2;endArrow=block;rounded=0;edgeStyle=orthogonalEdgeStyle;curved=0;rounded=0;" parent="1" edge="1">
          <mxGeometry relative="1" as="geometry">
            <mxPoint x="595" y="320" as="sourcePoint" />
            <Array as="points">
              <mxPoint x="625" y="350" />
            </Array>
            <mxPoint x="600" y="350" as="targetPoint" />
          </mxGeometry>
        </mxCell>
        <mxCell id="prv6S9n90Um1sJ-O_oQ2-147" value="" style="html=1;points=[[0,0,0,0,5],[0,1,0,0,-5],[1,0,0,0,5],[1,1,0,0,-5]];perimeter=orthogonalPerimeter;outlineConnect=0;targetShapes=umlLifeline;portConstraint=eastwest;newEdgeStyle={&quot;curved&quot;:0,&quot;rounded&quot;:0};strokeColor=#000000;fillColor=#dae8fc;" parent="1" vertex="1">
          <mxGeometry x="925" y="708" width="10" height="50" as="geometry" />
        </mxCell>
        <mxCell id="prv6S9n90Um1sJ-O_oQ2-148" value="" style="endArrow=classic;html=1;rounded=0;" parent="1" edge="1">
          <mxGeometry width="50" height="50" relative="1" as="geometry">
            <mxPoint x="585" y="738" as="sourcePoint" />
            <mxPoint x="925" y="738" as="targetPoint" />
          </mxGeometry>
        </mxCell>
        <mxCell id="prv6S9n90Um1sJ-O_oQ2-149" value="setVerification&lt;span style=&quot;background-color: transparent; color: light-dark(rgb(0, 0, 0), rgb(255, 255, 255));&quot;&gt;Code()&lt;/span&gt;" style="text;html=1;align=center;verticalAlign=middle;resizable=0;points=[];autosize=1;strokeColor=none;fillColor=none;fontSize=13;fontStyle=2" parent="1" vertex="1">
          <mxGeometry x="615" y="708" width="140" height="30" as="geometry" />
        </mxCell>
        <mxCell id="prv6S9n90Um1sJ-O_oQ2-150" value="sendVerificationCode()" style="text;html=1;align=center;verticalAlign=middle;resizable=0;points=[];autosize=1;strokeColor=none;fillColor=none;fontSize=13;fontStyle=2" parent="1" vertex="1">
          <mxGeometry x="585" y="908" width="160" height="30" as="geometry" />
        </mxCell>
        <mxCell id="prv6S9n90Um1sJ-O_oQ2-153" value="&lt;font style=&quot;font-size: 14px;&quot;&gt;&lt;b&gt;LoginPage&lt;/b&gt;&lt;/font&gt;" style="shape=umlLifeline;perimeter=lifelinePerimeter;whiteSpace=wrap;html=1;container=1;dropTarget=0;collapsible=0;recursiveResize=0;outlineConnect=0;portConstraint=eastwest;newEdgeStyle={&quot;curved&quot;:0,&quot;rounded&quot;:0};" parent="1" vertex="1">
          <mxGeometry x="-45" y="-10" width="100" height="1070" as="geometry" />
        </mxCell>
        <mxCell id="prv6S9n90Um1sJ-O_oQ2-155" value="" style="html=1;points=[[0,0,0,0,5],[0,1,0,0,-5],[1,0,0,0,5],[1,1,0,0,-5]];perimeter=orthogonalPerimeter;outlineConnect=0;targetShapes=umlLifeline;portConstraint=eastwest;newEdgeStyle={&quot;curved&quot;:0,&quot;rounded&quot;:0};strokeColor=#000000;fillColor=#dae8fc;" parent="prv6S9n90Um1sJ-O_oQ2-153" vertex="1">
          <mxGeometry x="45" y="950" width="10" height="40" as="geometry" />
        </mxCell>
        <mxCell id="prv6S9n90Um1sJ-O_oQ2-154" value="&quot;send successful message&quot;" style="html=1;verticalAlign=bottom;endArrow=open;dashed=1;endSize=8;curved=0;rounded=0;fontSize=13;fontStyle=2" parent="1" edge="1">
          <mxGeometry relative="1" as="geometry">
            <mxPoint x="575" y="960" as="sourcePoint" />
            <mxPoint x="4.388888888888687" y="960" as="targetPoint" />
          </mxGeometry>
        </mxCell>
        <mxCell id="prv6S9n90Um1sJ-O_oQ2-156" value="" style="html=1;points=[[0,0,0,0,5],[0,1,0,0,-5],[1,0,0,0,5],[1,1,0,0,-5]];perimeter=orthogonalPerimeter;outlineConnect=0;targetShapes=umlLifeline;portConstraint=eastwest;newEdgeStyle={&quot;curved&quot;:0,&quot;rounded&quot;:0};strokeColor=#000000;fillColor=#dae8fc;" parent="1" vertex="1">
          <mxGeometry x="755" y="1070" width="10" height="50" as="geometry" />
        </mxCell>
        <mxCell id="prv6S9n90Um1sJ-O_oQ2-157" value="&quot;send error message&quot;" style="html=1;verticalAlign=bottom;endArrow=open;dashed=1;endSize=8;curved=0;rounded=0;fontSize=13;fontStyle=2" parent="1" edge="1">
          <mxGeometry relative="1" as="geometry">
            <mxPoint x="584.9999999999995" y="1094.41" as="sourcePoint" />
            <mxPoint x="754.9999999999995" y="1094.41" as="targetPoint" />
          </mxGeometry>
        </mxCell>
        <mxCell id="prv6S9n90Um1sJ-O_oQ2-158" value="Existed USername" style="text;html=1;align=center;verticalAlign=middle;resizable=0;points=[];autosize=1;strokeColor=#666666;fillColor=#f5f5f5;fontSize=14;fontStyle=2;fontColor=#333333;" parent="1" vertex="1">
          <mxGeometry x="605" y="1160" width="140" height="30" as="geometry" />
        </mxCell>
        <mxCell id="prv6S9n90Um1sJ-O_oQ2-159" value="Existed Email" style="text;html=1;align=center;verticalAlign=middle;resizable=0;points=[];autosize=1;strokeColor=#666666;fillColor=#f5f5f5;fontSize=14;fontStyle=2;fontColor=#333333;" parent="1" vertex="1">
          <mxGeometry x="615" y="1300" width="110" height="30" as="geometry" />
        </mxCell>
        <mxCell id="prv6S9n90Um1sJ-O_oQ2-160" value="" style="html=1;points=[[0,0,0,0,5],[0,1,0,0,-5],[1,0,0,0,5],[1,1,0,0,-5]];perimeter=orthogonalPerimeter;outlineConnect=0;targetShapes=umlLifeline;portConstraint=eastwest;newEdgeStyle={&quot;curved&quot;:0,&quot;rounded&quot;:0};strokeColor=#000000;fillColor=#dae8fc;" parent="1" vertex="1">
          <mxGeometry x="755" y="1230" width="10" height="50" as="geometry" />
        </mxCell>
        <mxCell id="prv6S9n90Um1sJ-O_oQ2-161" value="&quot;send error message&quot;" style="html=1;verticalAlign=bottom;endArrow=open;dashed=1;endSize=8;curved=0;rounded=0;fontSize=13;fontStyle=2" parent="1" edge="1">
          <mxGeometry relative="1" as="geometry">
            <mxPoint x="584.9999999999995" y="1254.5800000000002" as="sourcePoint" />
            <mxPoint x="754.9999999999995" y="1254.5800000000002" as="targetPoint" />
          </mxGeometry>
        </mxCell>
        <mxCell id="prv6S9n90Um1sJ-O_oQ2-163" value="" style="endArrow=none;dashed=1;html=1;rounded=0;entryX=0;entryY=1;entryDx=0;entryDy=-5;entryPerimeter=0;" parent="1" edge="1">
          <mxGeometry width="50" height="50" relative="1" as="geometry">
            <mxPoint x="759.58" y="1230" as="sourcePoint" />
            <mxPoint x="759.58" y="1115" as="targetPoint" />
          </mxGeometry>
        </mxCell>
        <mxCell id="prv6S9n90Um1sJ-O_oQ2-164" value="" style="html=1;points=[[0,0,0,0,5],[0,1,0,0,-5],[1,0,0,0,5],[1,1,0,0,-5]];perimeter=orthogonalPerimeter;outlineConnect=0;targetShapes=umlLifeline;portConstraint=eastwest;newEdgeStyle={&quot;curved&quot;:0,&quot;rounded&quot;:0};strokeColor=#000000;fillColor=#dae8fc;" parent="1" vertex="1">
          <mxGeometry x="755" y="1360" width="10" height="50" as="geometry" />
        </mxCell>
        <mxCell id="prv6S9n90Um1sJ-O_oQ2-165" value="&quot;send error message&quot;" style="html=1;verticalAlign=bottom;endArrow=open;dashed=1;endSize=8;curved=0;rounded=0;fontSize=13;fontStyle=2" parent="1" edge="1">
          <mxGeometry relative="1" as="geometry">
            <mxPoint x="584.9999999999995" y="1384.5800000000002" as="sourcePoint" />
            <mxPoint x="754.9999999999995" y="1384.5800000000002" as="targetPoint" />
          </mxGeometry>
        </mxCell>
        <mxCell id="prv6S9n90Um1sJ-O_oQ2-166" value="" style="endArrow=none;dashed=1;html=1;rounded=0;" parent="1" source="prv6S9n90Um1sJ-O_oQ2-160" target="prv6S9n90Um1sJ-O_oQ2-164" edge="1">
          <mxGeometry width="50" height="50" relative="1" as="geometry">
            <mxPoint x="769.58" y="1240" as="sourcePoint" />
            <mxPoint x="769.58" y="1125" as="targetPoint" />
          </mxGeometry>
        </mxCell>
        <mxCell id="H3mIecejsxHy9FRox-02-1" value="User" style="text;html=1;align=center;verticalAlign=middle;whiteSpace=wrap;rounded=0;fontSize=14;fontStyle=1" parent="1" vertex="1">
          <mxGeometry x="-135" y="-40" width="60" height="30" as="geometry" />
        </mxCell>
      </root>
    </mxGraphModel>
  </diagram>
</mxfile>
